<svg xmlns="http://www.w3.org/2000/svg" width="640" height="360" viewBox="0 0 640 360" role="img" aria-label="Dracula Codex skin preview">
  <rect width="640" height="360" fill="#282a36"/>
  <rect x="22" y="22" width="132" height="316" rx="10" fill="#1f2130" stroke="#bd93f9" stroke-opacity=".35"/>
  <rect x="174" y="22" width="444" height="316" rx="12" fill="#1f2130" stroke="#bd93f9" stroke-opacity=".35"/>
  <rect x="190" y="42" width="410" height="34" rx="7" fill="#343746"/>
  <circle cx="210" cy="59" r="6" fill="#ff79c6"/>
  <circle cx="232" cy="59" r="6" fill="#bd93f9"/>
  <circle cx="254" cy="59" r="6" fill="#50fa7b"/>
  <text x="190" y="124" fill="#f8f8f2" font-family="Arial, sans-serif" font-size="28" font-weight="700">Dracula</text>
  <text x="190" y="154" fill="#c6c8d1" font-family="Arial, sans-serif" font-size="15">高对比深色主题</text>
  <rect x="190" y="192" width="390" height="74" rx="10" fill="#343746"/>
  <rect x="210" y="216" width="170" height="10" rx="5" fill="#bd93f9"/>
  <rect x="210" y="240" width="250" height="9" rx="4" fill="#ff79c6" opacity=".75"/>
  <rect x="42" y="54" width="82" height="10" rx="5" fill="#bd93f9"/>
  <rect x="42" y="96" width="94" height="10" rx="5" fill="#f8f8f2" opacity=".72"/>
  <rect x="42" y="124" width="62" height="10" rx="5" fill="#f8f8f2" opacity=".45"/>
</svg>
