<svg xmlns="http://www.w3.org/2000/svg" width="1200" height="680" viewBox="0 0 1200 680">
  <defs>
    <linearGradient id="bg" x1="0" y1="0" x2="1" y2="1">
      <stop offset="0" stop-color="#fff1fb"/>
      <stop offset="0.48" stop-color="#f8dbff"/>
      <stop offset="1" stop-color="#ffe5f1"/>
    </linearGradient>
    <linearGradient id="hero" x1="0" y1="0" x2="1" y2="0">
      <stop offset="0" stop-color="#7e37d8"/>
      <stop offset="0.56" stop-color="#bd65f3"/>
      <stop offset="1" stop-color="#ff97d1"/>
    </linearGradient>
    <filter id="shadow" x="-20%" y="-20%" width="140%" height="140%">
      <feDropShadow dx="0" dy="18" stdDeviation="18" flood-color="#a548b8" flood-opacity=".22"/>
    </filter>
  </defs>
  <rect width="1200" height="680" fill="url(#bg)"/>
  <rect x="18" y="18" width="220" height="644" rx="24" fill="#fff8ff" stroke="#e8b9f6"/>
  <text x="44" y="78" font-family="Inter, Arial" font-size="34" font-weight="800" fill="#8a45df">Codex ✦</text>
  <g font-family="Inter, Arial" font-size="17" fill="#69456e">
    <text x="46" y="138">☆ 新建任务</text>
    <text x="46" y="188">▣ 已安排</text>
    <text x="46" y="238">◇ 技能</text>
    <text x="46" y="288">⌘ 站点</text>
    <text x="46" y="338">♡ 聊天</text>
  </g>
  <rect x="256" y="18" width="926" height="644" rx="24" fill="#fffafd" stroke="#e9b8ee"/>
  <rect x="286" y="56" width="866" height="234" rx="28" fill="url(#hero)" filter="url(#shadow)"/>
  <circle cx="960" cy="172" r="104" fill="#ffd6ef" opacity=".55"/>
  <circle cx="1018" cy="166" r="78" fill="#fff4fd" opacity=".72"/>
  <text x="330" y="134" font-family="Inter, Arial" font-size="26" fill="#ffe9ff">薛凯琪专属定制皮肤 ✨</text>
  <text x="330" y="202" font-family="Inter, Arial" font-size="44" font-weight="900" fill="#ffffff">我们该构建什么？</text>
  <text x="330" y="246" font-family="Inter, Arial" font-size="22" fill="#ffe5fb">与凯琪一起，把灵感写进每一天 ♡</text>
  <text x="900" y="100" font-family="Georgia, serif" font-size="42" font-style="italic" fill="#ffffff">Fiona Sit ♡</text>
  <g filter="url(#shadow)">
    <rect x="310" y="330" width="190" height="128" rx="24" fill="#fff7fb" stroke="#edb6db"/>
    <rect x="526" y="330" width="190" height="128" rx="24" fill="#fff7fb" stroke="#edb6db"/>
    <rect x="742" y="330" width="190" height="128" rx="24" fill="#fff7fb" stroke="#edb6db"/>
    <rect x="958" y="330" width="170" height="128" rx="24" fill="#fff7fb" stroke="#edb6db"/>
  </g>
  <g font-family="Inter, Arial" text-anchor="middle" fill="#5a3269">
    <text x="405" y="392" font-size="34">⌘</text><text x="405" y="430" font-size="18">探索代码</text>
    <text x="621" y="392" font-size="34">✦</text><text x="621" y="430" font-size="18">构建功能</text>
    <text x="837" y="392" font-size="34">☑</text><text x="837" y="430" font-size="18">审查代码</text>
    <text x="1043" y="392" font-size="34">⚒</text><text x="1043" y="430" font-size="18">修复问题</text>
  </g>
  <rect x="310" y="508" width="818" height="92" rx="24" fill="#fff8fd" stroke="#e5acd9"/>
  <text x="344" y="562" font-family="Inter, Arial" font-size="22" fill="#93679c">随心输入，让灵感开始发光...</text>
  <circle cx="1080" cy="554" r="24" fill="#c765e9"/><text x="1080" y="563" text-anchor="middle" font-family="Arial" font-size="24" fill="#fff">↑</text>
</svg>
